<svg width="464" height="159" viewBox="0 0 464 159" fill="none" xmlns="http://www.w3.org/2000/svg">
<line x1="126.641" y1="7.83139" x2="28.5535" y2="105.918" stroke="white" stroke-width="1.4086"/>
<line x1="62.8418" y1="54.4845" x2="0.497469" y2="116.829" stroke="white" stroke-width="1.4086"/>
<path fill-rule="evenodd" clip-rule="evenodd" d="M77.8613 99.1638C79.7094 118.812 92.7981 129.983 110.018 129.983C127.335 129.983 137.985 118.795 140.035 106.42C140.094 106.061 140.147 105.702 140.192 105.341L139.104 105.336L125.325 105.273C123.934 112.706 118.096 116.983 110.255 116.983C100.924 116.983 94.2445 110.856 92.8207 99.1638H91.7334C92.3589 104.458 94.0341 108.735 96.6007 111.886C99.9372 115.983 104.688 118.063 110.255 118.063C114.371 118.063 118.032 116.939 120.864 114.773C123.49 112.766 125.346 109.906 126.198 106.357L138.941 106.415C136.905 118.212 126.715 128.903 110.018 128.903C100.977 128.903 93.1785 125.741 87.6364 119.889C82.9328 114.923 79.7909 107.951 78.9458 99.1638H77.8613ZM148.566 99.1638C148.426 100.458 148.355 101.794 148.355 103.169C148.355 119.223 158.198 130.051 174.014 130.051C189.831 130.051 199.674 119.223 199.674 103.169C199.674 101.794 199.603 100.458 199.463 99.1638H198.377C198.521 100.453 198.595 101.789 198.595 103.169C198.595 110.976 196.204 117.414 191.99 121.89C187.782 126.359 181.666 128.971 174.014 128.971C166.363 128.971 160.247 126.359 156.039 121.89C151.825 117.414 149.434 110.976 149.434 103.169C149.434 101.789 149.508 100.453 149.652 99.1638H148.566ZM162.212 99.1638C162.051 100.414 161.972 101.72 161.972 103.067C161.972 107.741 162.928 111.918 164.928 114.962C166.96 118.054 170.046 119.93 174.082 119.93C178.058 119.93 181.11 118.047 183.121 114.959C185.101 111.916 186.057 107.742 186.057 103.067C186.057 101.72 185.978 100.414 185.818 99.1638H184.729C184.894 100.402 184.978 101.708 184.978 103.067C184.978 112.163 181.244 118.85 174.082 118.85C166.785 118.85 163.051 112.163 163.051 103.067C163.051 101.708 163.135 100.402 163.301 99.1638H162.212ZM209.076 99.1638V110.093C209.11 122.278 216.238 129.711 226.726 129.711C234.02 129.711 239.405 126.215 242.006 120.808C242.201 120.403 242.38 119.988 242.543 119.563H243.086V119.771V120.642V121.05V127.953V129.032H244.165H255.888H256.968V127.953V99.1638H255.888V127.953H244.165V119.563V118.483H243.086H242.543H241.8L241.534 119.176C239.364 124.839 234.151 128.631 226.726 128.631C221.749 128.631 217.647 126.875 214.777 123.742C211.899 120.6 210.172 115.975 210.156 110.09V99.1638H209.076ZM222.456 99.1638V107.513L222.456 107.519C222.474 110.792 223.425 113.565 225.214 115.533C227.013 117.512 229.566 118.572 232.564 118.572C235.412 118.572 238.186 117.566 240.249 115.559C242.323 113.543 243.606 110.588 243.588 106.832L243.588 106.829V99.1638H242.509V106.835C242.543 113.826 237.757 117.492 232.564 117.492C227.099 117.492 223.569 113.657 223.535 107.513V99.1638H222.456ZM268.533 99.1638V127.953V129.032H269.613H281.913H282.993V127.953V99.5371C282.993 99.4119 282.994 99.2875 282.998 99.1638H281.918C281.914 99.2875 281.913 99.412 281.913 99.5371V127.953H269.613V99.1638H268.533ZM308.268 99.1638C310.439 103.213 314.917 105.968 321.796 107.344L330.825 109.143C335.373 110.059 337.443 111.722 337.511 114.336C337.443 117.424 334.083 119.63 329.026 119.63C323.867 119.63 320.439 117.424 319.556 113.182L306.417 113.871L305.335 113.928C305.384 114.291 305.443 114.648 305.511 115C307.316 124.345 315.679 130.051 328.992 130.051C342.501 130.051 352.174 123.16 352.208 112.876C352.176 105.802 347.836 101.39 338.935 99.1638H333.693L336.921 99.8142L336.924 99.8147C341.883 100.83 345.422 102.418 347.717 104.557C349.973 106.66 351.112 109.374 351.128 112.877C351.111 117.641 348.877 121.623 345.015 124.449C341.131 127.291 335.575 128.971 328.992 128.971C322.234 128.971 316.894 127.467 313.107 124.844C309.659 122.455 307.439 119.1 306.6 114.943L318.73 114.306C319.325 116.256 320.466 117.807 322.086 118.894C323.926 120.129 326.302 120.71 329.026 120.71C331.697 120.71 334.018 120.13 335.717 119.054C337.435 117.966 338.547 116.34 338.591 114.359L338.591 114.333L338.591 114.308C338.548 112.669 337.854 111.302 336.514 110.252C335.226 109.244 333.38 108.556 331.038 108.084L331.036 108.084L322.008 106.285L322.007 106.285C317.037 105.291 313.488 103.584 311.193 101.293C310.538 100.639 309.977 99.9298 309.512 99.1638H308.268ZM359.427 99.1638C359.282 100.469 359.208 101.817 359.208 103.203C359.208 119.732 369.018 130.051 385.072 130.051C397.49 130.051 406.007 124.23 408.441 115.163C408.535 114.813 408.62 114.458 408.695 114.098L407.606 114.026L395.322 113.216C393.863 117.187 390.129 119.257 385.31 119.257C378.41 119.257 373.922 114.898 373.526 107.745C373.507 107.402 373.498 107.054 373.498 106.699V106.665H374.578H407.921H409.001V105.585V102.694C409.001 101.475 408.95 100.298 408.851 99.1638H407.767C407.869 100.294 407.921 101.471 407.921 102.694V105.585H373.498H372.418V106.665V106.699C372.418 110.795 373.629 114.223 375.908 116.634C378.194 119.053 381.449 120.337 385.31 120.337C390.146 120.337 394.187 118.352 396.024 114.344L407.34 115.091C404.988 123.452 397.042 128.971 385.072 128.971C377.282 128.971 371.118 126.474 366.899 122.078C362.674 117.676 360.288 111.255 360.288 103.203C360.288 101.812 360.365 100.465 360.513 99.1638H359.427ZM419.062 99.1638C421.233 103.213 425.711 105.968 432.59 107.344L441.619 109.143C446.167 110.059 448.237 111.722 448.305 114.336C448.237 117.424 444.877 119.63 439.82 119.63C434.661 119.63 431.233 117.424 430.35 113.182L417.211 113.871L416.129 113.928C416.178 114.291 416.237 114.648 416.305 115C418.11 124.345 426.473 130.051 439.786 130.051C453.295 130.051 462.968 123.16 463.002 112.876C462.97 105.802 458.63 101.39 449.729 99.1638H444.487L447.715 99.8142L447.718 99.8147C452.677 100.83 456.216 102.418 458.511 104.557C460.767 106.66 461.906 109.374 461.922 112.877C461.905 117.641 459.671 121.623 455.809 124.449C451.925 127.291 446.368 128.971 439.786 128.971C433.028 128.971 427.688 127.467 423.901 124.844C420.453 122.455 418.233 119.1 417.394 114.943L429.524 114.306C430.119 116.256 431.26 117.807 432.88 118.894C434.72 120.129 437.096 120.71 439.82 120.71C442.491 120.71 444.812 120.13 446.511 119.054C448.229 117.966 449.341 116.34 449.385 114.359L449.385 114.333L449.385 114.308C449.342 112.669 448.648 111.302 447.308 110.252C446.02 109.244 444.174 108.556 441.832 108.084L441.83 108.084L432.802 106.285L432.801 106.285C427.831 105.291 424.282 103.584 421.987 101.293C421.332 100.639 420.771 99.9298 420.306 99.1638H419.062Z" fill="white"/>
<path fill-rule="evenodd" clip-rule="evenodd" d="M78.5645 132.617C81.9436 149.287 94.2492 158.657 110.019 158.657C127.337 158.657 137.986 147.469 140.037 135.094C140.096 134.735 140.149 134.375 140.194 134.015L139.106 134.01L125.327 133.947C123.936 141.38 118.098 145.657 110.257 145.657C102.293 145.657 96.2605 141.194 93.7787 132.617H92.6565C93.5278 135.761 94.8597 138.42 96.6027 140.56C99.9391 144.657 104.69 146.737 110.257 146.737C114.373 146.737 118.034 145.613 120.866 143.447C123.492 141.44 125.348 138.58 126.2 135.031L138.943 135.089C136.907 146.886 126.717 157.577 110.019 157.577C100.979 157.577 93.1805 154.415 87.6383 148.563C83.8223 144.534 81.0342 139.184 79.6666 132.617H78.5645ZM148.364 132.617C148.676 148.244 158.455 158.724 174.016 158.724C189.578 158.724 199.357 148.244 199.669 132.617H198.589C198.436 140.076 196.066 146.236 191.991 150.564C187.784 155.033 181.668 157.645 174.016 157.645C166.365 157.645 160.249 155.033 156.041 150.564C151.967 146.236 149.597 140.076 149.444 132.617H148.364ZM161.985 132.617C162.098 136.936 163.055 140.784 164.93 143.636C166.962 146.728 170.048 148.603 174.084 148.603C178.06 148.603 181.112 146.721 183.122 143.633C184.979 140.781 185.935 136.936 186.048 132.617H184.968C184.734 141.263 181.014 147.524 174.084 147.524C167.023 147.524 163.299 141.263 163.065 132.617H161.985ZM209.078 132.617V138.767C209.112 150.952 216.24 158.385 226.728 158.385C234.022 158.385 239.407 154.889 242.008 149.482C242.202 149.077 242.381 148.662 242.545 148.236H243.088V148.445V149.316V149.724V156.626V157.706H244.167H255.89H256.97V156.626V132.617H255.89V156.626H244.167V148.236V147.157H243.088H242.545H241.802L241.536 147.85C239.366 153.513 234.153 157.305 226.728 157.305C221.751 157.305 217.649 155.549 214.779 152.416C211.901 149.274 210.174 144.649 210.158 138.764V132.617H209.078ZM222.457 132.617V136.187L222.457 136.193C222.476 139.466 223.427 142.239 225.216 144.207C227.015 146.186 229.568 147.246 232.566 147.246C235.414 147.246 238.188 146.24 240.251 144.233C242.325 142.217 243.608 139.261 243.59 135.506L243.59 135.503V132.617H242.511V135.508C242.545 142.5 237.759 146.166 232.566 146.166C227.101 146.166 223.571 142.331 223.537 136.187V132.617H222.457ZM268.535 132.617V156.626V157.706H269.615H281.915H282.994V156.626V132.617H281.915V156.626H269.615V132.617H268.535ZM312.772 132.617C315.096 134.14 318.1 135.278 321.798 136.017L330.827 137.816C335.375 138.733 337.445 140.396 337.513 143.009C337.445 146.098 334.085 148.304 329.028 148.304C323.869 148.304 320.441 146.098 319.558 141.855L306.419 142.545L305.337 142.602C305.386 142.965 305.445 143.322 305.513 143.674C307.318 153.019 315.681 158.724 328.994 158.724C342.503 158.724 352.176 151.834 352.21 141.55C352.193 137.877 351.015 134.921 348.64 132.617H347.007C347.256 132.816 347.494 133.021 347.719 133.231C349.975 135.334 351.114 138.048 351.13 141.551C351.113 146.315 348.879 150.297 345.017 153.122C341.133 155.965 335.577 157.645 328.994 157.645C322.236 157.645 316.896 156.141 313.109 153.518C309.661 151.129 307.441 147.774 306.602 143.617L318.732 142.98C319.327 144.93 320.468 146.481 322.088 147.568C323.928 148.803 326.304 149.384 329.028 149.384C331.699 149.384 334.02 148.804 335.719 147.727C337.437 146.64 338.549 145.013 338.593 143.033L338.593 143.007L338.593 142.981C338.55 141.343 337.856 139.976 336.516 138.926C335.228 137.918 333.382 137.23 331.04 136.758L331.038 136.757L322.01 134.959L322.009 134.959C319.203 134.397 316.85 133.609 314.92 132.617H312.772ZM359.217 132.617C359.506 148.714 369.26 158.724 385.074 158.724C397.492 158.724 406.008 152.904 408.443 143.837C408.537 143.487 408.622 143.132 408.697 142.772L407.608 142.7L395.324 141.889C393.865 145.861 390.131 147.931 385.311 147.931C378.412 147.931 373.924 143.572 373.528 136.418C373.509 136.076 373.5 135.727 373.5 135.373V135.339H374.58H407.923H409.003V134.259V132.617H407.923V134.259H373.5H372.42V135.339V135.373C372.42 139.469 373.63 142.897 375.91 145.308C378.195 147.726 381.451 149.011 385.311 149.011C390.148 149.011 394.189 147.026 396.026 143.018L407.342 143.765C404.989 152.126 397.044 157.645 385.074 157.645C377.284 157.645 371.12 155.147 366.901 150.751C362.806 146.486 360.439 140.323 360.297 132.617H359.217ZM423.566 132.617C425.89 134.14 428.894 135.278 432.592 136.017L441.621 137.816C446.169 138.733 448.239 140.396 448.307 143.009C448.239 146.098 444.879 148.304 439.822 148.304C434.663 148.304 431.234 146.098 430.352 141.855L417.213 142.545L416.13 142.602C416.18 142.965 416.238 143.322 416.307 143.674C418.112 153.019 426.475 158.724 439.788 158.724C453.297 158.724 462.97 151.834 463.004 141.55C462.987 137.877 461.809 134.921 459.434 132.617H457.801C458.05 132.816 458.288 133.021 458.513 133.231C460.769 135.334 461.908 138.048 461.924 141.551C461.907 146.315 459.673 150.297 455.811 153.122C451.927 155.965 446.37 157.645 439.788 157.645C433.03 157.645 427.69 156.141 423.903 153.518C420.455 151.129 418.235 147.774 417.396 143.617L429.526 142.98C430.121 144.93 431.262 146.481 432.881 147.568C434.722 148.803 437.098 149.384 439.822 149.384C442.493 149.384 444.814 148.804 446.513 147.727C448.231 146.64 449.343 145.013 449.387 143.033L449.387 143.007L449.387 142.981C449.344 141.343 448.65 139.976 447.31 138.926C446.022 137.918 444.176 137.23 441.834 136.758L441.832 136.757L432.804 134.959L432.803 134.959C429.997 134.397 427.644 133.609 425.714 132.617H423.566Z" fill="white"/>
<line x1="128.077" y1="0.381752" x2="52.8888" y2="75.5701" stroke="white" stroke-width="1.07976"/>
<line x1="79.1708" y1="36.1435" x2="31.381" y2="83.9333" stroke="white" stroke-width="1.07976"/>
<path fill-rule="evenodd" clip-rule="evenodd" d="M78.9779 51.761C78.1034 55.24 77.6367 59.0638 77.6367 63.2129C77.6367 85.8859 91.417 98.9195 110.017 98.9195C127.836 98.9195 138.596 87.0739 140.191 74.2779L125.325 74.21C123.933 81.6432 118.095 85.9199 110.255 85.9199C99.6988 85.9199 92.5371 78.0794 92.5371 63.2129C92.5371 48.7538 99.5969 40.506 110.356 40.506C118.401 40.506 124.205 45.156 125.325 52.7929H140.191C138.256 36.7385 126.105 27.5063 110.017 27.5063C107.397 27.5063 104.865 27.7704 102.45 28.2891L78.9779 51.761ZM174.014 98.9874C189.831 98.9874 199.674 88.16 199.674 72.1056C199.674 55.9494 189.831 45.156 174.014 45.156C158.197 45.156 148.354 55.9494 148.354 72.1056C148.354 88.16 158.197 98.9874 174.014 98.9874ZM174.082 87.7867C166.784 87.7867 163.051 81.1002 163.051 72.0038C163.051 62.9075 166.784 56.187 174.082 56.187C181.244 56.187 184.977 62.9075 184.977 72.0038C184.977 81.1002 181.244 87.7867 174.082 87.7867ZM232.563 86.429C237.756 86.429 242.542 82.7633 242.508 75.7713V45.8348H256.967V97.9692H243.085V88.4994H242.542C240.2 94.6089 234.566 98.648 226.725 98.648C216.237 98.648 209.11 91.2148 209.076 79.0297V45.8348H223.535V76.4502C223.569 82.5936 227.099 86.429 232.563 86.429ZM268.533 97.9692H282.992V68.4739C282.992 62.0589 287.676 57.6465 294.057 57.6465C296.06 57.6465 298.809 57.9859 300.166 58.4272V45.5972C298.877 45.2918 297.078 45.0881 295.618 45.0881C289.78 45.0881 284.995 48.4823 283.094 54.9312H282.551V45.8348H268.533V97.9692ZM328.822 45.156C341.991 45.156 349.73 51.0958 351.019 60.7013L337.782 61.5159C337.069 58.1556 334.083 55.4064 329.059 55.4064C324.579 55.4064 321.049 57.4429 321.083 60.5655C321.049 63.0772 322.848 64.7403 327.702 65.7925L337.137 67.6932C347.252 69.7637 352.173 74.2779 352.207 81.8129C352.173 92.0973 342.5 98.9874 328.991 98.9874C315.177 98.9874 306.692 92.844 305.334 82.8651L319.556 82.1184C320.438 86.3611 323.866 88.5673 329.025 88.5673C334.083 88.5673 337.443 86.3611 337.511 83.2724C337.443 80.6589 335.372 78.9958 330.824 78.0794L321.796 76.2805C311.613 74.244 306.692 69.1867 306.726 61.3801C306.692 51.3334 315.483 45.156 328.822 45.156ZM385.071 98.9874C397.969 98.9874 406.658 92.7082 408.695 83.0348L395.322 82.1524C393.862 86.1235 390.129 88.194 385.309 88.194C378.079 88.194 373.497 83.4082 373.497 75.6356V75.6016H409V71.6305C409 53.9129 398.275 45.156 384.494 45.156C369.153 45.156 359.208 56.0513 359.208 72.1396C359.208 88.6692 369.017 98.9874 385.071 98.9874ZM373.497 66.641C373.803 60.7013 378.317 55.9494 384.732 55.9494C391.011 55.9494 395.356 60.4297 395.39 66.641H373.497ZM439.616 45.156C452.785 45.156 460.524 51.0958 461.813 60.7013L448.576 61.5159C447.863 58.1556 444.877 55.4064 439.853 55.4064C435.373 55.4064 431.843 57.4429 431.877 60.5655C431.843 63.0772 433.642 64.7403 438.496 65.7925L447.931 67.6932C458.046 69.7637 462.967 74.2779 463.001 81.8129C462.967 92.0973 453.294 98.9874 439.785 98.9874C425.971 98.9874 417.486 92.844 416.128 82.8651L430.35 82.1184C431.232 86.3611 434.66 88.5673 439.819 88.5673C444.877 88.5673 448.237 86.3611 448.305 83.2724C448.237 80.6589 446.166 78.9958 441.618 78.0794L432.59 76.2805C422.407 74.244 417.486 69.1867 417.52 61.3801C417.486 51.3334 426.277 45.156 439.616 45.156Z" fill="white"/>
</svg>
