<svg width="36" height="36" viewBox="0 0 36 36" fill="none" xmlns="http://www.w3.org/2000/svg">
<path d="M6.8 14.8H10C13.2 14.8 14.8 13.2 14.8 10V6.8C14.8 3.6 13.2 2 10 2H6.8C3.6 2 2 3.6 2 6.8V10C2 13.2 3.6 14.8 6.8 14.8Z" stroke="white" stroke-width="2.32" stroke-miterlimit="10" stroke-linecap="round" stroke-linejoin="round"/>
<path d="M26 14.8H29.2C32.4 14.8 34 13.2 34 10V6.8C34 3.6 32.4 2 29.2 2H26C22.8 2 21.2 3.6 21.2 6.8V10C21.2 13.2 22.8 14.8 26 14.8Z" stroke="white" stroke-width="2.32" stroke-miterlimit="10" stroke-linecap="round" stroke-linejoin="round"/>
<path d="M26 34H29.2C32.4 34 34 32.4 34 29.2V26C34 22.8 32.4 21.2 29.2 21.2H26C22.8 21.2 21.2 22.8 21.2 26V29.2C21.2 32.4 22.8 34 26 34Z" stroke="white" stroke-width="2.32" stroke-miterlimit="10" stroke-linecap="round" stroke-linejoin="round"/>
<path d="M6.8 34H10C13.2 34 14.8 32.4 14.8 29.2V26C14.8 22.8 13.2 21.2 10 21.2H6.8C3.6 21.2 2 22.8 2 26V29.2C2 32.4 3.6 34 6.8 34Z" stroke="white" stroke-width="2.32" stroke-miterlimit="10" stroke-linecap="round" stroke-linejoin="round"/>
</svg>
